<svg width="71" height="41" viewBox="0 0 71 41" fill="none" xmlns="http://www.w3.org/2000/svg">
<g clip-path="url(#clip0_1923_1494)">
<mask id="mask0_1923_1494" style="mask-type:luminance" maskUnits="userSpaceOnUse" x="0" y="1" width="70" height="40">
<path d="M70 1H0V41H70V1Z" fill="white"/>
</mask>
<g mask="url(#mask0_1923_1494)">
<path d="M45.3584 12.5457C45.4613 12.4136 45.6274 12.1741 45.8253 11.8685C45.7066 11.8189 45.58 11.7776 45.4534 11.7363C45.4058 12.2319 45.3584 12.5457 45.3584 12.5457Z" fill="black"/>
<path d="M45.8253 11.8685C45.7066 11.8189 45.58 11.7776 45.4534 11.7363C45.4058 12.2319 45.3584 12.5457 45.3584 12.5457C45.4613 12.4136 45.6274 12.1741 45.8253 11.8685Z" fill="#4177BC"/>
<path d="M45.8253 11.8685C45.7066 11.8189 45.58 11.7776 45.4534 11.7363C45.4058 12.2319 45.3584 12.5457 45.3584 12.5457C45.4613 12.4136 45.6274 12.1741 45.8253 11.8685Z" fill="black"/>
<path d="M12.123 22.0527H16.5781V32.8476H12.123V22.0527Z" fill="#226DB6"/>
<path d="M12.123 15.3223H16.5781V19.898H12.123V15.3223Z" fill="#40489E"/>
<path d="M31.708 12.4154H9.93104V32.8489H5.4601V12.4154H0V7.80664H31.708V12.4154Z" fill="#226DB6"/>
<path d="M48.0965 3.75036C47.5504 1.93331 46.0706 1 44.2902 1C39.297 1 28.543 9.30064 24.0087 15.0409C21.9988 17.5848 20.2817 20.4425 19.1579 23.5398C18.0343 26.6288 17.7178 30.5271 19.6564 33.3519C20.2975 34.2934 21.1838 35.0285 22.2124 35.4663C23.2491 35.9039 24.3806 36.0608 25.4885 36.0608C29.4451 36.0608 33.4255 34.2603 36.836 32.022C35.8627 31.5761 34.9684 30.9897 34.1852 30.2876C33.1801 30.7832 32.5312 31.031 32.3176 31.1136C31.6055 31.3778 24.0087 33.6161 24.262 27.4464C24.5152 21.2766 29.817 14.7848 33.5362 10.9029C35.1663 9.20153 36.9785 7.65703 38.9092 6.33554C39.7559 5.74912 40.6343 5.204 41.5602 4.76625C42.2407 4.44415 43.0083 4.08073 43.7758 4.09725C44.8678 4.12203 45.2952 5.16271 45.501 6.1208C45.6671 6.88892 45.6434 7.69832 45.6434 8.48297C45.6434 9.5319 45.5801 10.5726 45.4535 11.6133C45.4535 11.6463 45.4535 11.6876 45.4614 11.7124C45.4772 11.7454 45.5088 11.7537 45.5405 11.7619C45.6354 11.795 45.7383 11.828 45.8333 11.861C45.9124 11.8858 46.3081 11.2416 46.3635 11.1507C46.5454 10.8699 46.7274 10.5808 46.9016 10.2835C48.0332 8.31778 48.8245 6.02993 48.0965 3.75036Z" fill="#A4BF3B"/>
<path d="M69.9999 12.3987V33.2452H69.8178L58.2093 21.4593V32.8902H54.2764V12.0684H54.4663L66.0512 23.8296V12.3905H69.992L69.9999 12.3987Z" fill="#226DB6"/>
<path d="M30.751 22.3095C30.751 16.0819 35.6098 10.9941 41.5604 10.9941C47.5111 10.9941 52.3777 16.0819 52.3777 22.3095C52.3777 28.5369 47.5032 33.5503 41.5446 33.5503C35.5859 33.5503 30.751 28.4874 30.751 22.3095ZM48.1442 22.2847C48.1442 18.4854 45.1767 15.3964 41.5446 15.3964C37.9124 15.3964 34.9686 18.4935 34.9686 22.2847C34.9686 26.0758 37.9203 29.1317 41.5446 29.1317C45.1688 29.1317 48.1442 26.0508 48.1442 22.2847Z" fill="#40489E"/>
<path d="M5.68966 37.5566L5.14364 40.8685H4.90625L5.44435 37.5566H5.68966Z" fill="#6A7989"/>
<path d="M7.3749 39.1751C7.35907 39.0843 7.3195 39.0099 7.26411 38.9604C7.20871 38.9026 7.12167 38.8777 7.01088 38.8777C6.89219 38.8777 6.7814 38.9026 6.68645 38.9604C6.58357 39.0182 6.50445 39.0924 6.44114 39.1916C6.37784 39.2907 6.33826 39.398 6.31453 39.5138L6.08505 40.8682H5.84766L6.21166 38.696H6.44905L6.37784 39.1255C6.44905 38.9768 6.54401 38.8612 6.66271 38.7787C6.7814 38.696 6.92384 38.6465 7.08211 38.6465C7.23246 38.6465 7.34324 38.6795 7.43029 38.7538C7.51734 38.8282 7.57273 38.9273 7.59646 39.0429C7.62813 39.1585 7.63603 39.2907 7.61229 39.4394L7.3749 40.8682H7.14542L7.3749 39.4641C7.39071 39.3568 7.38281 39.266 7.3749 39.1751Z" fill="#6A7989"/>
<path d="M9.59853 39.1751C9.58272 39.0843 9.54315 39.0099 9.48776 38.9604C9.43236 38.9026 9.34532 38.8777 9.23453 38.8777C9.11584 38.8777 9.00505 38.9026 8.9101 38.9604C8.80722 39.0182 8.7281 39.0924 8.66478 39.1916C8.60147 39.2907 8.56191 39.398 8.53818 39.5138L8.30868 40.8682H8.07129L8.43531 38.696H8.6727L8.60147 39.1255C8.6727 38.9768 8.76766 38.8612 8.88635 38.7787C9.00505 38.696 9.14749 38.6465 9.30576 38.6465C9.45609 38.6465 9.56688 38.6795 9.65393 38.7538C9.73307 38.8282 9.79636 38.9273 9.82011 39.0429C9.85176 39.1585 9.85967 39.2907 9.83593 39.4394L9.59853 40.8682H9.36905L9.59853 39.4641C9.61436 39.3568 9.60645 39.266 9.59853 39.1751Z" fill="#6A7989"/>
<path d="M10.5324 39.2087C10.6432 39.0351 10.7856 38.9031 10.9597 38.7956C11.1338 38.6965 11.3158 38.6387 11.5215 38.6387C11.7273 38.6387 11.8934 38.6883 12.028 38.7956C12.1704 38.9031 12.2733 39.0434 12.3366 39.2087C12.3999 39.3821 12.4236 39.5638 12.392 39.7702C12.3682 39.9766 12.297 40.1666 12.1783 40.3402C12.0675 40.5136 11.9251 40.6458 11.751 40.7531C11.5769 40.8522 11.3949 40.91 11.1892 40.91C10.9834 40.91 10.8172 40.8605 10.6827 40.7531C10.5403 40.6458 10.4374 40.5136 10.3741 40.3402C10.3108 40.1666 10.2871 39.9849 10.3108 39.7785C10.3345 39.5638 10.4057 39.3738 10.5244 39.2087H10.5324ZM10.5957 40.2163C10.6432 40.3566 10.7223 40.4641 10.8252 40.5466C10.928 40.6292 11.0625 40.6705 11.2208 40.6705C11.3791 40.6705 11.5294 40.6292 11.6639 40.5466C11.7985 40.4641 11.9093 40.3566 12.0042 40.2163C12.0913 40.0758 12.1546 39.9271 12.1783 39.7619C12.1941 39.6051 12.1783 39.4563 12.1387 39.3243C12.0913 39.1921 12.0121 39.0765 11.9093 38.9939C11.7985 38.9031 11.6719 38.8617 11.5136 38.8617C11.3553 38.8617 11.2129 38.9031 11.0784 38.9856C10.9438 39.0682 10.8331 39.1756 10.7381 39.316C10.6511 39.4563 10.5878 39.6051 10.564 39.7702C10.5403 39.9271 10.564 40.0675 10.6036 40.208L10.5957 40.2163Z" fill="#6A7989"/>
<path d="M12.9455 38.6875L13.357 40.455L14.2987 38.6875H14.5677L13.2858 40.9917L12.7002 38.6875H12.9613H12.9455Z" fill="#6A7989"/>
<path d="M14.7584 39.2004C14.8692 39.0268 15.0037 38.8948 15.1699 38.7873C15.3361 38.6883 15.5102 38.6387 15.708 38.6387C15.8504 38.6387 15.9612 38.6717 16.0641 38.7378C16.159 38.8039 16.2382 38.8948 16.2936 39.0021C16.349 39.1095 16.3807 39.2334 16.3964 39.3655C16.4122 39.4977 16.4122 39.6382 16.3964 39.7785C16.3726 39.9271 16.3331 40.0675 16.2777 40.1997C16.2224 40.3319 16.1432 40.4558 16.0562 40.5631C15.9691 40.6705 15.8663 40.7531 15.7476 40.8192C15.6289 40.8853 15.5023 40.91 15.3598 40.91C15.1699 40.91 15.0037 40.8605 14.8771 40.7531C14.7505 40.6458 14.6555 40.5136 14.6002 40.3402C14.5448 40.1666 14.5289 39.9849 14.5527 39.7785C14.5843 39.5638 14.6555 39.3738 14.7663 39.2004H14.7584ZM14.8138 40.2163C14.8534 40.3566 14.9246 40.4641 15.0196 40.5466C15.1224 40.6292 15.249 40.6705 15.3994 40.6705C15.5023 40.6705 15.6051 40.6458 15.7001 40.5961C15.795 40.5466 15.8821 40.4805 15.9612 40.398C16.0403 40.3153 16.1116 40.2163 16.159 40.1088C16.2144 40.0016 16.2461 39.8941 16.2698 39.7702C16.2857 39.6629 16.2857 39.5555 16.2698 39.4482C16.254 39.3407 16.2224 39.2499 16.167 39.159C16.1195 39.0765 16.0562 39.0021 15.977 38.9526C15.8979 38.9031 15.8109 38.87 15.7001 38.87C15.5497 38.87 15.3994 38.9031 15.2728 38.9856C15.1382 39.0682 15.0275 39.1756 14.9404 39.316C14.8534 39.4563 14.7901 39.6051 14.7663 39.7785C14.7505 39.9355 14.7663 40.0841 14.798 40.2244L14.8138 40.2163ZM16.6971 38.6883L16.3331 40.8605H16.1195L16.4755 38.6883H16.6971Z" fill="#6A7989"/>
<path d="M17.9552 38.6877L17.9156 38.9189H17.0215L17.0611 38.6877H17.9552ZM17.7416 37.9277L17.2588 40.8599H17.0293L17.5041 37.9277H17.7416Z" fill="#6A7989"/>
<path d="M18.612 38.6877L18.256 40.8599H18.0264L18.3746 38.6877H18.612ZM18.5329 37.5809C18.5329 37.5809 18.604 37.5312 18.6516 37.5312C18.6991 37.5312 18.7386 37.5479 18.7704 37.5809C18.8019 37.614 18.8178 37.6551 18.8178 37.7048C18.8178 37.7543 18.8019 37.7957 18.7704 37.8287C18.7386 37.8618 18.6991 37.8782 18.6516 37.8782C18.604 37.8782 18.5646 37.8618 18.5329 37.8287C18.5013 37.7957 18.4855 37.7543 18.4855 37.7048C18.4855 37.6551 18.5013 37.614 18.5329 37.5809Z" fill="#6A7989"/>
<path d="M19.2287 39.2087C19.3394 39.0351 19.4819 38.9031 19.6559 38.7956C19.8301 38.6965 20.0121 38.6387 20.2178 38.6387C20.4236 38.6387 20.5898 38.6883 20.7242 38.7956C20.8666 38.9031 20.9695 39.0434 21.0328 39.2087C21.0961 39.3821 21.1198 39.5638 21.0883 39.7702C21.0645 39.9766 20.9932 40.1666 20.8747 40.3402C20.7638 40.5136 20.6213 40.6458 20.4473 40.7531C20.2731 40.8522 20.0912 40.91 19.8855 40.91C19.6798 40.91 19.5136 40.8605 19.379 40.7531C19.2365 40.6458 19.1337 40.5136 19.0704 40.3402C19.0071 40.1666 18.9834 39.9849 19.0071 39.7785C19.0308 39.5638 19.1021 39.3738 19.2207 39.2087H19.2287ZM19.292 40.2163C19.3394 40.3566 19.4186 40.4641 19.5214 40.5466C19.6243 40.6292 19.7587 40.6705 19.9171 40.6705C20.0754 40.6705 20.2257 40.6292 20.3603 40.5466C20.4947 40.4641 20.6056 40.3566 20.7005 40.2163C20.7875 40.0758 20.8508 39.9271 20.8747 39.7619C20.8904 39.6051 20.8747 39.4563 20.8351 39.3243C20.7875 39.1921 20.7083 39.0765 20.6056 38.9939C20.4947 38.9031 20.3681 38.8617 20.2098 38.8617C20.0517 38.8617 19.9092 38.9031 19.7746 38.9856C19.6402 39.0682 19.5293 39.1756 19.4344 39.316C19.3474 39.4563 19.284 39.6051 19.2602 39.7702C19.2365 39.9271 19.2602 40.0675 19.2998 40.208L19.292 40.2163Z" fill="#6A7989"/>
<path d="M22.9325 39.1751C22.9167 39.0843 22.8772 39.0099 22.8218 38.9604C22.7663 38.9026 22.6793 38.8777 22.5686 38.8777C22.4499 38.8777 22.339 38.9026 22.2441 38.9604C22.1413 39.0182 22.0621 39.0924 21.9988 39.1916C21.9355 39.2907 21.8959 39.398 21.8722 39.5138L21.6427 40.8682H21.4053L21.7693 38.696H22.0067L21.9355 39.1255C22.0067 38.9768 22.1017 38.8612 22.2204 38.7787C22.339 38.696 22.4814 38.6465 22.6398 38.6465C22.7901 38.6465 22.901 38.6795 22.988 38.7538C23.0671 38.8282 23.1304 38.9273 23.1541 39.0429C23.1859 39.1585 23.1937 39.2907 23.17 39.4394L22.9325 40.8682H22.7031L22.9325 39.4641C22.9484 39.3568 22.9405 39.266 22.9325 39.1751Z" fill="#6A7989"/>
<path d="M25.2507 37.5566H27.1181L27.0786 37.8043H26.2636L25.7571 40.8685H25.5117L26.0183 37.8043H25.2031L25.2507 37.5566Z" fill="#6A7989"/>
<path d="M27.2138 40.8676H26.9844L27.5936 37.1758H27.8231L27.2138 40.8676ZM28.5116 39.1746C28.4958 39.0837 28.4562 39.0176 28.4007 38.9598C28.3454 38.9102 28.2583 38.8771 28.1476 38.8771C28.0288 38.8771 27.9181 38.9021 27.8152 38.968C27.7202 39.0341 27.6332 39.1168 27.5699 39.2158C27.5066 39.3149 27.4592 39.4224 27.4353 39.538H27.3563C27.3879 39.381 27.4433 39.2324 27.5144 39.1002C27.5936 38.968 27.6886 38.8524 27.8072 38.7698C27.9259 38.6873 28.0605 38.646 28.2187 38.646C28.377 38.646 28.4799 38.679 28.5669 38.7532C28.6461 38.8276 28.7093 38.9185 28.7331 39.0424C28.7648 39.158 28.7648 39.2902 28.7568 39.4388L28.5195 40.8676H28.29L28.5195 39.4636C28.5353 39.3563 28.5273 39.2571 28.5195 39.1663L28.5116 39.1746Z" fill="#6A7989"/>
<path d="M29.4137 39.2004C29.5246 39.0268 29.659 38.8948 29.8252 38.7873C29.9913 38.68 30.1655 38.6387 30.3633 38.6387C30.5057 38.6387 30.6166 38.6717 30.7195 38.7378C30.8143 38.8039 30.8935 38.8948 30.9489 39.0021C31.0042 39.1095 31.0359 39.2334 31.0518 39.3655C31.0675 39.4977 31.0675 39.6382 31.0518 39.7785C31.0281 39.9271 30.9885 40.0675 30.9331 40.1997C30.8776 40.3319 30.7985 40.4558 30.7115 40.5631C30.6244 40.6705 30.5216 40.7531 30.4028 40.8192C30.2841 40.8853 30.1575 40.91 30.0151 40.91C29.8252 40.91 29.659 40.8605 29.5324 40.7531C29.4058 40.6458 29.3108 40.5136 29.2555 40.3402C29.2001 40.1666 29.1842 39.9849 29.2079 39.7785C29.2397 39.5638 29.3108 39.3738 29.4217 39.2004H29.4137ZM29.4691 40.2163C29.5087 40.3566 29.5798 40.4641 29.6749 40.5466C29.7777 40.6292 29.9043 40.6705 30.0546 40.6705C30.1575 40.6705 30.2604 40.6458 30.3554 40.5961C30.4504 40.5466 30.5374 40.4805 30.6166 40.398C30.6956 40.3153 30.7669 40.2163 30.8143 40.1088C30.8698 40.0016 30.9013 39.8941 30.9252 39.7702C30.9409 39.6629 30.9409 39.5555 30.9252 39.4482C30.9093 39.3407 30.8776 39.2499 30.8223 39.159C30.7747 39.0765 30.7115 39.0021 30.6323 38.9526C30.5533 38.9031 30.4661 38.87 30.3554 38.87C30.2051 38.87 30.0546 38.9031 29.928 38.9856C29.7936 39.0682 29.6827 39.1756 29.5957 39.316C29.5087 39.4563 29.4454 39.6051 29.4217 39.7785C29.4058 39.9355 29.4217 40.0841 29.4532 40.2244L29.4691 40.2163ZM31.3524 38.6883L30.9885 40.8605H30.7747L31.131 38.6883H31.3524Z" fill="#6A7989"/>
<path d="M32.6105 38.6877L32.5709 38.9189H31.6768L31.7163 38.6877H32.6105ZM32.3969 37.9277L31.9141 40.8599H31.6846L32.1594 37.9277H32.3969Z" fill="#6A7989"/>
<path d="M34.3747 39.7451C34.4062 39.9185 34.4617 40.0672 34.5487 40.2077C34.6357 40.3399 34.7466 40.4472 34.881 40.5297C35.0156 40.6124 35.1818 40.6455 35.3558 40.6455C35.5774 40.6455 35.7753 40.6124 35.9493 40.5216C36.1234 40.4389 36.2897 40.3316 36.432 40.1994L36.3845 40.5463C36.2342 40.6619 36.0759 40.7528 35.9098 40.8189C35.7436 40.885 35.5537 40.918 35.3321 40.918C35.1105 40.918 34.9206 40.8684 34.7466 40.7775C34.5804 40.6867 34.438 40.5546 34.3351 40.3977C34.2242 40.2407 34.1531 40.059 34.1135 39.8526C34.0739 39.646 34.066 39.4395 34.0976 39.2165C34.1293 38.9853 34.2005 38.7623 34.3034 38.5558C34.4062 38.3494 34.5408 38.1677 34.699 38.0189C34.8573 37.8621 35.0393 37.7463 35.2371 37.6555C35.435 37.5646 35.6486 37.5234 35.8782 37.5234C36.0839 37.5234 36.258 37.5482 36.4004 37.6143C36.5507 37.6721 36.6853 37.7712 36.8119 37.895L36.7565 38.2419C36.6536 38.0933 36.527 37.9777 36.3687 37.9033C36.2184 37.829 36.0363 37.7877 35.8465 37.796C35.6566 37.796 35.4824 37.829 35.3162 37.9033C35.1501 37.9777 34.9998 38.0768 34.8732 38.2172C34.7386 38.3494 34.6278 38.498 34.5408 38.6714C34.4538 38.8448 34.3904 39.0265 34.3588 39.2248C34.3351 39.4065 34.3351 39.5882 34.3588 39.7534L34.3747 39.7451Z" fill="#6A7989"/>
<path d="M37.2394 39.2087C37.3501 39.0351 37.4926 38.9031 37.6666 38.7956C37.8408 38.6965 38.0228 38.6387 38.2284 38.6387C38.4342 38.6387 38.6005 38.6883 38.7349 38.7956C38.8774 38.9031 38.9803 39.0434 39.0436 39.2087C39.1069 39.3821 39.1306 39.5638 39.099 39.7702C39.0753 39.9766 39.004 40.1666 38.8852 40.3402C38.7745 40.5136 38.6321 40.6458 38.458 40.7531C38.2839 40.8522 38.1018 40.91 37.8961 40.91C37.6903 40.91 37.5242 40.8605 37.3897 40.7531C37.2473 40.6458 37.1444 40.5136 37.0811 40.3402C37.0178 40.1666 36.9941 39.9849 37.0178 39.7785C37.0494 39.5638 37.1127 39.3738 37.2314 39.2087H37.2394ZM37.3027 40.2163C37.3501 40.3566 37.4293 40.4641 37.5322 40.5466C37.6351 40.6292 37.7695 40.6705 37.9278 40.6705C38.0861 40.6705 38.2364 40.6292 38.3709 40.5466C38.5055 40.4641 38.6162 40.3566 38.7112 40.2163C38.7982 40.0758 38.8615 39.9271 38.8852 39.7619C38.9011 39.6051 38.8852 39.4563 38.8457 39.3243C38.7982 39.1921 38.7191 39.0765 38.6162 38.9939C38.5055 38.9031 38.3789 38.8617 38.2206 38.8617C38.0622 38.8617 37.92 38.9031 37.7854 38.9856C37.6508 39.0682 37.54 39.1756 37.4452 39.316C37.3501 39.4563 37.2947 39.6051 37.271 39.7702C37.2473 39.9271 37.271 40.0675 37.3106 40.208L37.3027 40.2163Z" fill="#6A7989"/>
<path d="M40.9433 39.1751C40.9274 39.0843 40.8878 39.0099 40.8325 38.9604C40.7771 38.9026 40.6901 38.8777 40.5792 38.8777C40.4685 38.8777 40.3497 38.9026 40.2549 38.9604C40.152 39.0182 40.0728 39.0924 40.0095 39.1916C39.9462 39.2907 39.9067 39.398 39.883 39.5138L39.6533 40.8682H39.416L39.7801 38.696H40.0174L39.9462 39.1255C40.0174 38.9768 40.1124 38.8612 40.231 38.7787C40.3497 38.696 40.4922 38.6465 40.6505 38.6465C40.8008 38.6465 40.9115 38.6795 40.9987 38.7538C41.0777 38.8282 41.1412 38.9273 41.1649 39.0429C41.1964 39.1585 41.1964 39.2907 41.1806 39.4394L40.9433 40.8682H40.7138L40.9433 39.4641C40.9591 39.3568 40.9511 39.266 40.9433 39.1751Z" fill="#6A7989"/>
<path d="M43.1669 39.1751C43.151 39.0843 43.1114 39.0099 43.056 38.9604C43.0007 38.9026 42.9136 38.8777 42.8028 38.8777C42.6921 38.8777 42.5734 38.9026 42.4783 38.9604C42.3755 39.0182 42.2965 39.0924 42.233 39.1916C42.1697 39.2907 42.1301 39.398 42.1064 39.5138L41.877 40.8682H41.6396L42.0036 38.696H42.241L42.1697 39.1255C42.241 38.9768 42.3359 38.8612 42.4546 38.7787C42.5734 38.696 42.7158 38.6465 42.8741 38.6465C43.0244 38.6465 43.1352 38.6795 43.2222 38.7538C43.3013 38.8282 43.3646 38.9273 43.3883 39.0429C43.4201 39.1585 43.4201 39.2907 43.4042 39.4394L43.1669 40.8682H42.9374L43.1669 39.4641C43.1826 39.3568 43.1747 39.266 43.1669 39.1751Z" fill="#6A7989"/>
<path d="M44.2667 40.793C44.1401 40.7103 44.0451 40.5947 43.974 40.446C43.9027 40.2974 43.8711 40.124 43.8711 39.9174C43.8711 39.7523 43.9027 39.587 43.966 39.4384C44.0294 39.2898 44.1084 39.1492 44.2113 39.0255C44.3142 38.9016 44.4407 38.8108 44.5753 38.7364C44.7178 38.662 44.8603 38.6289 45.0184 38.6289C45.1767 38.6289 45.327 38.6703 45.4458 38.7447C45.5645 38.8189 45.6595 38.9264 45.7307 39.0667C45.8018 39.2072 45.8335 39.3723 45.8335 39.5623C45.8335 39.6037 45.8335 39.6531 45.8177 39.7026C45.8098 39.7523 45.794 39.7935 45.7781 39.8265H44.0294V39.6118H45.6278L45.5249 39.7604C45.5249 39.7604 45.5567 39.6945 45.5645 39.6531C45.5724 39.6118 45.5804 39.5623 45.5804 39.5209C45.5804 39.3889 45.5567 39.2731 45.5091 39.1742C45.4616 39.075 45.3983 38.9925 45.3113 38.9345C45.2242 38.8767 45.1213 38.852 44.9947 38.852C44.8681 38.852 44.7574 38.885 44.6465 38.9428C44.5358 39.0006 44.4407 39.0833 44.3617 39.1742C44.2746 39.2731 44.2113 39.3806 44.1717 39.5128C44.1243 39.6367 44.1006 39.7687 44.1006 39.9092C44.1006 40.0579 44.1243 40.1982 44.1717 40.3138C44.2193 40.4296 44.2904 40.5204 44.3855 40.5864C44.4803 40.6525 44.5912 40.6855 44.7257 40.6855C44.884 40.6855 45.0343 40.6443 45.1609 40.5616C45.2874 40.4791 45.4062 40.3718 45.4932 40.2313L45.6832 40.3552C45.5645 40.5286 45.422 40.6608 45.2559 40.7599C45.0897 40.8591 44.9077 40.9086 44.6941 40.9086C44.5279 40.9086 44.3855 40.8672 44.2589 40.7847L44.2667 40.793Z" fill="#6A7989"/>
<path d="M46.4187 40.2163C46.4663 40.3566 46.5453 40.4641 46.6482 40.5466C46.7591 40.6292 46.8857 40.6705 47.044 40.6788C47.2021 40.6788 47.3446 40.6458 47.4792 40.5714C47.6136 40.497 47.7165 40.4227 47.7957 40.3319L47.7561 40.6375C47.6691 40.7117 47.5584 40.7778 47.4316 40.8356C47.305 40.8853 47.1706 40.91 47.0201 40.91C46.8224 40.91 46.6482 40.8605 46.5138 40.7531C46.3713 40.6458 46.2684 40.5136 46.2051 40.3402C46.1418 40.1666 46.1181 39.9849 46.1418 39.7785C46.1655 39.5638 46.2367 39.3738 46.3554 39.2087C46.4663 39.0351 46.6086 38.9031 46.7828 38.7956C46.9568 38.6965 47.1388 38.6387 47.3446 38.6387C47.4792 38.6387 47.6058 38.6634 47.7245 38.7131C47.8431 38.7626 47.9381 38.8287 48.0093 38.9195L47.9697 39.2251C47.9144 39.126 47.8352 39.0434 47.7245 38.9773C47.6136 38.9112 47.4792 38.8782 47.3367 38.8782C47.1784 38.8782 47.0281 38.9195 46.8935 39.0021C46.7591 39.0848 46.6482 39.1921 46.5612 39.3326C46.4742 39.4646 46.4187 39.6216 46.395 39.7868C46.3713 39.9438 46.3872 40.0841 46.4346 40.2244L46.4187 40.2163Z" fill="#6A7989"/>
<path d="M49.2042 38.6877L49.1646 38.9189H48.2705L48.3101 38.6877H49.2042ZM48.9906 37.9277L48.508 40.8599H48.2784L48.7531 37.9277H48.9906Z" fill="#6A7989"/>
<path d="M49.4727 40.4475C49.5203 40.5219 49.5756 40.5797 49.6469 40.6209C49.718 40.6622 49.805 40.687 49.9079 40.687C50.0346 40.687 50.1375 40.6458 50.2245 40.5714C50.3115 40.497 50.359 40.398 50.367 40.2822C50.367 40.1997 50.359 40.1255 50.3115 40.0675C50.272 40.0097 50.2165 39.9602 50.1454 39.9188C50.0741 39.8777 50.0029 39.8446 49.9238 39.8199C49.8368 39.7868 49.7576 39.7455 49.6784 39.696C49.5993 39.6463 49.5281 39.5885 49.4807 39.506C49.4331 39.4316 49.4094 39.3326 49.4174 39.2087C49.4174 39.0848 49.457 38.9773 49.5203 38.8948C49.5836 38.8122 49.6706 38.7461 49.7656 38.7048C49.8605 38.6634 49.9633 38.6387 50.0741 38.6387C50.2404 38.6387 50.3827 38.68 50.4856 38.7626C50.5884 38.8451 50.6676 38.9526 50.723 39.0765L50.5489 39.1921C50.5014 39.1012 50.4381 39.0187 50.359 38.9526C50.2798 38.8865 50.185 38.8534 50.0662 38.8534C49.9555 38.8534 49.8605 38.8865 49.7813 38.9443C49.7021 39.0021 49.6547 39.0848 49.6469 39.1921C49.6469 39.2665 49.6547 39.3407 49.6943 39.3904C49.7339 39.4482 49.7813 39.4893 49.8446 39.5224C49.9079 39.5554 49.9792 39.5885 50.0584 39.6216C50.1612 39.6629 50.2482 39.7124 50.3353 39.7619C50.4223 39.8116 50.4856 39.8777 50.5332 39.9602C50.5806 40.0346 50.6043 40.1419 50.5964 40.2575C50.5964 40.3814 50.5569 40.4888 50.4936 40.5878C50.4303 40.687 50.3511 40.7614 50.2404 40.8192C50.1375 40.877 50.0188 40.91 49.8842 40.91C49.7497 40.91 49.6232 40.877 49.5281 40.8192C49.4331 40.7614 49.3461 40.687 49.2908 40.5961C49.2274 40.5053 49.1879 40.4144 49.1641 40.3236L49.362 40.2163C49.3857 40.2988 49.4253 40.3731 49.4727 40.4475Z" fill="#6A7989"/>
<path d="M53.3107 38.6877L53.2711 38.9189H52.377L52.4165 38.6877H53.3107ZM53.0971 37.9277L52.6144 40.8599H52.3848L52.8596 37.9277H53.0971Z" fill="#6A7989"/>
<path d="M53.5566 40.8676H53.3271L53.9365 37.1758H54.166L53.5566 40.8676ZM54.8465 39.1746C54.8307 39.0837 54.7911 39.0176 54.7357 38.9598C54.6804 38.9102 54.5932 38.8771 54.4825 38.8771C54.3637 38.8771 54.253 38.9021 54.1501 38.968C54.0551 39.0341 53.9681 39.1168 53.9048 39.2158C53.8415 39.3149 53.7941 39.4224 53.7702 39.538H53.6912C53.7228 39.381 53.7782 39.2324 53.8494 39.1002C53.9285 38.968 54.0236 38.8524 54.1423 38.7698C54.2609 38.6873 54.3955 38.646 54.5536 38.646C54.7119 38.646 54.8148 38.679 54.9018 38.7532C54.981 38.8276 55.0364 38.9185 55.068 39.0424C55.0997 39.158 55.0997 39.2902 55.0919 39.4388L54.8544 40.8676H54.6249L54.8544 39.4636C54.8703 39.3563 54.8622 39.2571 54.8544 39.1663L54.8465 39.1746Z" fill="#6A7989"/>
<path d="M55.9464 40.793C55.8198 40.7103 55.7248 40.5947 55.6537 40.446C55.5823 40.2974 55.5508 40.124 55.5508 39.9174C55.5508 39.7523 55.5823 39.587 55.6456 39.4384C55.7089 39.2898 55.7881 39.1492 55.891 39.0255C55.9938 38.9016 56.1204 38.8108 56.255 38.7364C56.3975 38.662 56.5399 38.6289 56.6981 38.6289C56.8564 38.6289 57.0067 38.6703 57.1255 38.7447C57.2442 38.8189 57.3391 38.9264 57.4104 39.0667C57.4815 39.2072 57.5132 39.3723 57.5132 39.5623C57.5132 39.6037 57.5132 39.6531 57.4974 39.7026C57.4895 39.7523 57.4737 39.7935 57.4578 39.8265H55.7089V39.6118H57.3075L57.2046 39.7604C57.2046 39.7604 57.2362 39.6945 57.2442 39.6531C57.252 39.6118 57.2601 39.5623 57.2601 39.5209C57.2601 39.3889 57.2362 39.2731 57.1887 39.1742C57.1413 39.075 57.078 38.9925 56.991 38.9345C56.9038 38.8767 56.801 38.852 56.6744 38.852C56.5478 38.852 56.4371 38.885 56.3262 38.9428C56.2155 39.0006 56.1204 39.0833 56.0414 39.1742C55.9543 39.2731 55.891 39.3806 55.8514 39.5128C55.804 39.6367 55.7802 39.7687 55.7802 39.9092C55.7802 40.0579 55.804 40.1982 55.8514 40.3138C55.899 40.4296 55.9701 40.5204 56.0651 40.5864C56.16 40.6525 56.2709 40.6855 56.4053 40.6855C56.5637 40.6855 56.714 40.6443 56.8405 40.5616C56.9671 40.4791 57.0859 40.3718 57.1729 40.2313L57.3629 40.3552C57.2442 40.5286 57.1017 40.6608 56.9356 40.7599C56.7694 40.8591 56.5874 40.9086 56.3738 40.9086C56.2076 40.9086 56.0652 40.8672 55.9386 40.7847L55.9464 40.793Z" fill="#6A7989"/>
<path d="M59.9973 37.5566L59.4513 40.8685H59.2139L59.7519 37.5566H60.0053H59.9973ZM59.6491 38.9524H60.9627L60.9231 39.2002H59.6175L59.6571 38.9524H59.6491ZM59.8787 37.5566H61.2318L61.1922 37.8043H59.8391L59.8787 37.5566Z" fill="#6A7989"/>
<path d="M61.5647 40.3631C61.5806 40.454 61.6123 40.5282 61.6756 40.586C61.7309 40.644 61.818 40.6687 61.9366 40.6687C62.0553 40.6687 62.1661 40.6357 62.2689 40.5779C62.364 40.5201 62.451 40.4374 62.5143 40.3465C62.5776 40.2475 62.6171 40.1401 62.6409 40.0328L62.8705 38.6782H63.1078L62.7437 40.8504H62.5143L62.5856 40.4209C62.5064 40.5613 62.4114 40.6687 62.2928 40.7596C62.1741 40.8504 62.0316 40.8918 61.8733 40.8918C61.723 40.8918 61.6123 40.8504 61.5251 40.776C61.4461 40.7018 61.3907 40.6026 61.3589 40.4787C61.3352 40.3548 61.3274 40.2226 61.3432 40.0823L61.5806 38.6699H61.81L61.5806 40.0492C61.5647 40.1567 61.5647 40.2557 61.5806 40.3465L61.5647 40.3631Z" fill="#6A7989"/>
<path d="M64.3741 38.6877L64.3346 38.9189H63.4404L63.48 38.6877H64.3741ZM64.1605 37.9277L63.6779 40.8599H63.4484L63.9232 37.9277H64.1605Z" fill="#6A7989"/>
<path d="M64.7534 40.3631C64.7692 40.454 64.8008 40.5282 64.8641 40.586C64.9195 40.644 65.0065 40.6687 65.1253 40.6687C65.244 40.6687 65.3547 40.6357 65.4498 40.5779C65.5446 40.5201 65.6316 40.4374 65.6949 40.3465C65.7582 40.2475 65.7978 40.1401 65.8217 40.0328L66.0511 38.6782H66.2885L65.9246 40.8504H65.6949L65.7662 40.4209C65.6871 40.5613 65.5921 40.6687 65.4735 40.7596C65.3547 40.8504 65.2123 40.8918 65.054 40.8918C64.9037 40.8918 64.7929 40.8504 64.7058 40.776C64.6268 40.7018 64.5713 40.6026 64.5396 40.4787C64.5159 40.3548 64.508 40.2226 64.5239 40.0823L64.7612 38.6699H64.9907L64.7612 40.0492C64.7454 40.1567 64.7454 40.2557 64.7612 40.3465L64.7534 40.3631Z" fill="#6A7989"/>
<path d="M66.8428 40.8687H66.6055L66.9694 38.6965H67.2068L66.8428 40.8687ZM67.7212 38.9031C67.7212 38.9031 67.634 38.8782 67.5866 38.8782C67.4837 38.8782 67.3887 38.9031 67.3176 38.969C67.2464 39.0351 67.191 39.1178 67.1514 39.2251C67.1118 39.3243 67.0803 39.4316 67.0564 39.539H66.9457C66.9694 39.3904 67.0168 39.2499 67.0803 39.1095C67.1436 38.9773 67.2225 38.8617 67.3254 38.7709C67.4204 38.68 67.5392 38.6387 67.6658 38.6387C67.7291 38.6387 67.7845 38.647 67.8398 38.6717C67.8952 38.6965 67.9427 38.7295 67.9903 38.7709L67.8319 38.969C67.8319 38.969 67.7608 38.9195 67.7212 38.8948V38.9031Z" fill="#6A7989"/>
<path d="M68.3536 40.793C68.2271 40.7103 68.1322 40.5947 68.0609 40.446C67.9897 40.2974 67.958 40.124 67.958 39.9174C67.958 39.7523 67.9897 39.587 68.053 39.4384C68.1163 39.2898 68.1955 39.1492 68.2984 39.0255C68.4012 38.9016 68.5278 38.8108 68.6623 38.7364C68.8047 38.662 68.9472 38.6289 69.1055 38.6289C69.2636 38.6289 69.4141 38.6703 69.5327 38.7447C69.6514 38.8189 69.7464 38.9264 69.8176 39.0667C69.8889 39.2072 69.9205 39.3723 69.9205 39.5623C69.9205 39.6037 69.9205 39.6531 69.9046 39.7026C69.8967 39.7523 69.8809 39.7935 69.8652 39.8265H68.1163V39.6118H69.7147L69.6118 39.7604C69.6118 39.7604 69.6436 39.6945 69.6514 39.6531C69.6594 39.6118 69.6673 39.5623 69.6673 39.5209C69.6673 39.3889 69.6436 39.2731 69.596 39.1742C69.5485 39.075 69.4853 38.9925 69.3982 38.9345C69.3112 38.8767 69.2084 38.852 69.0818 38.852C68.955 38.852 68.8443 38.885 68.7336 38.9428C68.6227 39.0006 68.5278 39.0833 68.4487 39.1742C68.3617 39.2731 68.2984 39.3806 68.2588 39.5128C68.2112 39.6367 68.1875 39.7687 68.1875 39.9092C68.1875 40.0579 68.2112 40.1982 68.2588 40.3138C68.3062 40.4296 68.3774 40.5204 68.4724 40.5864C68.5674 40.6525 68.6781 40.6855 68.8127 40.6855C68.9709 40.6855 69.1212 40.6443 69.2479 40.5616C69.3745 40.4791 69.4931 40.3718 69.5803 40.2313L69.7702 40.3552C69.6514 40.5286 69.509 40.6608 69.3428 40.7599C69.1766 40.8591 68.9946 40.9086 68.781 40.9086C68.6148 40.9086 68.4724 40.8672 68.3458 40.7847L68.3536 40.793Z" fill="#6A7989"/>
</g>
</g>
<defs>
<clipPath id="clip0_1923_1494">
<rect width="70" height="40" fill="white" transform="translate(0 1)"/>
</clipPath>
</defs>
</svg>
